<svg width="5299" height="420" viewBox="0 0 5299 420" fill="none" xmlns="http://www.w3.org/2000/svg">
<mask id="path-1-outside-1_39_4" maskUnits="userSpaceOnUse" x="-1" y="-1" width="5301" height="422" fill="black">
<rect fill="white" x="-1" y="-1" width="5301" height="422"/>
<path d="M307.8 168C331.8 182.8 347.4 206 347.4 238.4C347.4 285.6 319.8 320 256.2 320H0.200001V40H246.6C310.2 40 329.8 72.4 329.8 113.6C329.8 133.2 321.8 152.4 307.8 168ZM72.2 92V150H220.6H221C240.2 150 257.8 150 257.8 120.8C257.8 92 240.2 92 220.6 92H72.2ZM238.6 264.4C257.8 264.4 275.4 264.4 275.4 234.8C275.4 205.2 257.8 205.2 238.6 205.2H72.2V264.4H238.6ZM528.541 324C430.941 324 365.341 288.8 365.341 202.4C365.341 115.6 430.941 80.4 528.541 80.4C625.741 80.4 691.741 115.6 691.741 202.4C691.741 288.8 625.741 324 528.541 324ZM528.541 266.8C591.741 266.8 622.941 251.2 622.941 202.4C622.941 153.2 591.741 137.6 528.541 137.6C464.941 137.6 433.741 153.2 433.741 202.4C433.741 251.2 464.941 266.8 528.541 266.8ZM903.778 80.4C979.378 80.4 1044.18 112.4 1044.18 202.4C1044.18 292.4 979.378 324 903.778 324C852.978 324 811.778 310 786.178 283.2V320H717.778V-4.76837e-06H786.178V121.2C811.778 94.4 852.978 80.4 903.778 80.4ZM880.978 266.8C942.178 266.8 975.378 248.8 975.378 202.4C975.378 155.6 942.178 137.6 880.978 137.6C819.778 137.6 786.178 155.6 786.178 202.4C786.178 248.8 819.778 266.8 880.978 266.8ZM1256.12 80.4C1331.72 80.4 1396.52 112.4 1396.52 202.4C1396.52 292.4 1331.72 324 1256.12 324C1205.32 324 1164.12 310 1138.52 283.2V320H1070.12V-4.76837e-06H1138.52V121.2C1164.12 94.4 1205.32 80.4 1256.12 80.4ZM1233.32 266.8C1294.52 266.8 1327.72 248.8 1327.72 202.4C1327.72 155.6 1294.52 137.6 1233.32 137.6C1172.12 137.6 1138.52 155.6 1138.52 202.4C1138.52 248.8 1172.12 266.8 1233.32 266.8ZM1650.55 84.4H1726.15L1566.95 420H1491.35L1538.95 320H1503.75L1381.75 84.4H1457.75L1558.55 278.8L1650.55 84.4ZM2275.26 40V179.6C2275.26 276.8 2222.06 324 2107.26 324C1992.06 324 1939.26 277.2 1939.26 179.6H2011.26C2011.26 218.8 2022.06 263.6 2107.26 263.6C2192.46 263.6 2203.26 218.4 2203.26 179.6V100.4H2070.46V40H2275.26ZM2466.43 324C2368.83 324 2303.23 288.8 2303.23 202.4C2303.23 115.6 2368.83 80.4 2466.43 80.4C2563.63 80.4 2629.63 115.6 2629.63 202.4C2629.63 288.8 2563.63 324 2466.43 324ZM2466.43 266.8C2529.63 266.8 2560.83 251.2 2560.83 202.4C2560.83 153.2 2529.63 137.6 2466.43 137.6C2402.83 137.6 2371.63 153.2 2371.63 202.4C2371.63 251.2 2402.83 266.8 2466.43 266.8ZM2808.53 268.4C2855.73 268.4 2884.53 259.6 2901.73 235.6H2969.73C2954.13 295.6 2895.73 324 2808.53 324C2718.93 324 2649.32 288.8 2649.32 202.4C2649.32 115.6 2716.93 80.4 2812.53 80.4C2902.13 80.4 2973.73 111.2 2973.73 218.4H2719.33C2726.93 256 2762.93 268.4 2808.53 268.4ZM2812.13 132.4C2765.33 132.4 2732.53 141.6 2721.73 174.8H2900.53C2888.93 141.6 2855.33 132.4 2812.13 132.4ZM3182.92 223.6H3254.92C3254.92 253.2 3278.92 266.8 3370.12 266.8C3445.72 266.8 3468.52 258.4 3468.52 236.4C3468.52 213.2 3452.52 209.2 3361.72 204.8C3239.72 199.2 3191.32 180 3191.32 117.2C3191.32 55.6 3254.12 36 3358.92 36C3464.52 36 3528.52 62.4 3528.52 131.6H3456.52C3456.52 100.8 3425.72 93.2 3350.92 93.2C3280.12 93.2 3263.32 100 3263.32 120.8C3263.32 142.4 3280.12 146.4 3361.72 151.2C3472.12 157.2 3540.52 163.2 3540.52 234C3540.52 308.8 3469.72 324 3366.12 324C3251.32 324 3182.92 304.4 3182.92 223.6ZM3977.36 80.4C4030.16 80.4 4078.16 102.8 4078.96 188L4078.16 320H4009.76V215.6C4009.76 165.6 4001.36 139.6 3952.56 139.6C3916.56 139.6 3881.36 156.8 3860.56 175.6C3860.96 179.6 3860.96 183.6 3860.96 188L3860.16 320H3791.76V215.6C3791.76 165.6 3783.36 139.6 3734.56 139.6C3694.96 139.6 3656.56 160 3636.96 181.2V320H3568.56V84.4H3636.96V122.8C3662.56 102.4 3700.96 80.4 3759.36 80.4C3794.96 80.4 3828.56 90.8 3846.56 123.6C3876.96 100.8 3918.96 80.4 3977.36 80.4ZM4111.14 -4.76837e-06H4179.54V59.6H4111.14V-4.76837e-06ZM4111.14 84.4H4179.54V320H4111.14V84.4ZM4445.63 141.6H4334.03V209.6C4334.03 255.2 4342.83 266.8 4384.43 266.8C4406.03 266.8 4418.03 266.8 4445.63 262.8V318C4422.83 322 4396.83 324 4365.23 324C4304.43 324 4265.23 301.2 4265.23 249.2V141.6H4203.23V84.4H4265.23V35.6L4334.03 16V84.4H4445.63V141.6ZM4679.24 80.4C4742.04 80.4 4800.84 102.8 4801.64 189.6L4800.84 320H4732.04V215.6C4732.04 165.6 4715.24 139.6 4658.84 139.6C4612.84 139.6 4563.24 163.2 4542.04 188V320H4473.64V-4.76837e-06H4542.04V125.6C4575.64 99.2 4622.04 80.4 4679.24 80.4ZM5090.56 40V320H5018.56V40H5090.56ZM5194.47 40V320H5122.47V40H5194.47ZM5298.37 40V320H5226.37V40H5298.37Z"/>
</mask>
<path d="M307.8 168L307.056 167.332L306.256 168.223L307.275 168.851L307.8 168ZM0.200001 320H-0.799999V321H0.200001V320ZM0.200001 40V39H-0.799999V40H0.200001ZM72.2 92V91H71.2V92H72.2ZM72.2 150H71.2V151H72.2V150ZM72.2 205.2V204.2H71.2V205.2H72.2ZM72.2 264.4H71.2V265.4H72.2V264.4ZM307.275 168.851C331.011 183.488 346.4 206.382 346.4 238.4H348.4C348.4 205.618 332.589 182.111 308.325 167.149L307.275 168.851ZM346.4 238.4C346.4 261.808 339.56 281.921 324.951 296.185C310.342 310.45 287.825 319 256.2 319V321C288.175 321 311.258 312.35 326.349 297.615C341.44 282.879 348.4 262.192 348.4 238.4H346.4ZM256.2 319H0.200001V321H256.2V319ZM1.2 320V40H-0.799999V320H1.2ZM0.200001 41H246.6V39H0.200001V41ZM246.6 41C278.241 41 298.736 49.0582 311.332 62.0462C323.933 75.0395 328.8 93.1425 328.8 113.6H330.8C330.8 92.8575 325.867 74.1604 312.768 60.6538C299.664 47.1418 278.559 39 246.6 39V41ZM328.8 113.6C328.8 132.924 320.912 151.892 307.056 167.332L308.544 168.668C322.688 152.908 330.8 133.476 330.8 113.6H328.8ZM71.2 92V150H73.2V92H71.2ZM72.2 151H220.6V149H72.2V151ZM220.6 151H221V149H220.6V151ZM221 151C225.788 151 230.543 151.001 234.954 150.538C239.368 150.075 243.512 149.142 247.073 147.231C250.656 145.308 253.609 142.415 255.653 138.11C257.687 133.827 258.8 128.192 258.8 120.8H256.8C256.8 128.008 255.713 133.323 253.847 137.252C251.991 141.16 249.344 143.742 246.127 145.469C242.888 147.208 239.032 148.1 234.746 148.549C230.457 148.999 225.812 149 221 149V151ZM258.8 120.8C258.8 113.507 257.687 107.944 255.644 103.715C253.591 99.4647 250.622 96.6104 247.015 94.7148C243.431 92.831 239.251 91.9115 234.783 91.4552C230.316 90.999 225.488 91 220.6 91V93C225.512 93 230.234 93.0009 234.58 93.4448C238.924 93.8885 242.819 94.769 246.085 96.4852C249.328 98.1895 251.984 100.735 253.843 104.585C255.713 108.456 256.8 113.693 256.8 120.8H258.8ZM220.6 91H72.2V93H220.6V91ZM238.6 265.4C243.388 265.4 248.143 265.401 252.556 264.932C256.971 264.462 261.116 263.516 264.678 261.578C271.922 257.637 276.4 249.802 276.4 234.8H274.4C274.4 249.398 270.078 256.363 263.722 259.822C260.484 261.584 256.629 262.487 252.344 262.943C248.057 263.399 243.412 263.4 238.6 263.4V265.4ZM276.4 234.8C276.4 219.798 271.922 211.963 264.678 208.022C261.116 206.084 256.971 205.138 252.556 204.668C248.143 204.199 243.388 204.2 238.6 204.2V206.2C243.412 206.2 248.057 206.201 252.344 206.657C256.629 207.112 260.484 208.016 263.722 209.778C270.078 213.237 274.4 220.202 274.4 234.8H276.4ZM238.6 204.2H72.2V206.2H238.6V204.2ZM71.2 205.2V264.4H73.2V205.2H71.2ZM72.2 265.4H238.6V263.4H72.2V265.4ZM528.541 323C479.833 323 439.268 314.212 410.906 294.775C382.607 275.382 366.341 245.307 366.341 202.4H364.341C364.341 245.893 380.874 276.618 409.775 296.425C438.614 316.188 479.648 325 528.541 325V323ZM366.341 202.4C366.341 159.291 382.608 129.117 410.907 109.674C439.268 90.1883 479.833 81.4 528.541 81.4V79.4C479.649 79.4 438.613 88.2117 409.774 108.026C380.873 127.883 364.341 158.709 364.341 202.4H366.341ZM528.541 81.4C577.048 81.4 617.613 90.188 646.025 109.675C674.374 129.119 690.741 159.293 690.741 202.4H692.741C692.741 158.707 676.107 127.881 647.156 108.025C618.268 88.212 577.233 79.4 528.541 79.4V81.4ZM690.741 202.4C690.741 245.305 674.376 275.38 646.026 294.775C617.614 314.212 577.048 323 528.541 323V325C577.234 325 618.268 316.188 647.155 296.425C676.105 276.62 692.741 245.895 692.741 202.4H690.741ZM528.541 267.8C560.173 267.8 584.022 263.906 599.978 253.743C616.042 243.512 623.941 227.041 623.941 202.4H621.941C621.941 226.559 614.24 242.288 598.903 252.057C583.459 261.894 560.108 265.8 528.541 265.8V267.8ZM623.941 202.4C623.941 177.562 616.044 160.991 599.98 150.708C584.024 140.494 560.173 136.6 528.541 136.6V138.6C560.108 138.6 583.458 142.506 598.902 152.392C614.237 162.209 621.941 178.038 621.941 202.4H623.941ZM528.541 136.6C496.709 136.6 472.759 140.494 456.753 150.707C440.638 160.99 432.741 177.562 432.741 202.4H434.741C434.741 178.038 442.444 162.21 457.829 152.393C473.322 142.506 496.772 138.6 528.541 138.6V136.6ZM432.741 202.4C432.741 227.042 440.64 243.513 456.755 253.744C472.76 263.906 496.709 267.8 528.541 267.8V265.8C496.773 265.8 473.321 261.894 457.827 252.056C442.441 242.287 434.741 226.558 434.741 202.4H432.741ZM786.178 283.2L786.901 282.509L785.178 280.705V283.2H786.178ZM786.178 320V321H787.178V320H786.178ZM717.778 320H716.778V321H717.778V320ZM717.778 -4.76837e-06V-1H716.778V-4.76837e-06H717.778ZM786.178 -4.76837e-06H787.178V-1H786.178V-4.76837e-06ZM786.178 121.2H785.178V123.695L786.901 121.891L786.178 121.2ZM903.778 81.4C941.46 81.4 976.316 89.3785 1001.73 108.45C1027.09 127.485 1043.18 157.669 1043.18 202.4H1045.18C1045.18 157.131 1028.86 126.315 1002.93 106.85C977.04 87.4214 941.696 79.4 903.778 79.4V81.4ZM1043.18 202.4C1043.18 247.13 1027.09 277.213 1001.73 296.149C976.319 315.121 941.463 323 903.778 323V325C941.694 325 977.038 317.079 1002.93 297.751C1028.86 278.387 1045.18 247.67 1045.18 202.4H1043.18ZM903.778 323C853.138 323 812.247 309.043 786.901 282.509L785.455 283.891C811.31 310.957 852.818 325 903.778 325V323ZM785.178 283.2V320H787.178V283.2H785.178ZM786.178 319H717.778V321H786.178V319ZM718.778 320V-4.76837e-06H716.778V320H718.778ZM717.778 0.999995H786.178V-1H717.778V0.999995ZM785.178 -4.76837e-06V121.2H787.178V-4.76837e-06H785.178ZM786.901 121.891C812.247 95.3572 853.138 81.4 903.778 81.4V79.4C852.818 79.4 811.31 93.4428 785.455 120.509L786.901 121.891ZM880.978 267.8C911.638 267.8 935.475 263.299 951.671 252.84C967.953 242.325 976.378 225.879 976.378 202.4H974.378C974.378 225.321 966.203 241.075 950.586 251.16C934.881 261.301 911.518 265.8 880.978 265.8V267.8ZM976.378 202.4C976.378 178.725 967.956 162.178 951.672 151.611C935.476 141.101 911.638 136.6 880.978 136.6V138.6C911.519 138.6 934.88 143.099 950.584 153.289C966.2 163.422 974.378 179.275 974.378 202.4H976.378ZM880.978 136.6C850.318 136.6 826.381 141.102 810.086 151.61C793.704 162.174 785.178 178.72 785.178 202.4H787.178C787.178 179.28 795.453 163.426 811.17 153.29C826.975 143.098 850.438 138.6 880.978 138.6V136.6ZM785.178 202.4C785.178 225.883 793.706 242.329 810.088 252.842C826.382 263.298 850.318 267.8 880.978 267.8V265.8C850.438 265.8 826.974 261.302 811.168 251.158C795.45 241.071 787.178 225.317 787.178 202.4H785.178ZM1138.52 283.2L1139.24 282.509L1137.52 280.705V283.2H1138.52ZM1138.52 320V321H1139.52V320H1138.52ZM1070.12 320H1069.12V321H1070.12V320ZM1070.12 -4.76837e-06V-1H1069.12V-4.76837e-06H1070.12ZM1138.52 -4.76837e-06H1139.52V-1H1138.52V-4.76837e-06ZM1138.52 121.2H1137.52V123.695L1139.24 121.891L1138.52 121.2ZM1256.12 81.4C1293.8 81.4 1328.66 89.3785 1354.07 108.45C1379.44 127.485 1395.52 157.669 1395.52 202.4H1397.52C1397.52 157.131 1381.21 126.315 1355.27 106.85C1329.38 87.4214 1294.04 79.4 1256.12 79.4V81.4ZM1395.52 202.4C1395.52 247.13 1379.44 277.213 1354.07 296.149C1328.66 315.121 1293.81 323 1256.12 323V325C1294.04 325 1329.38 317.079 1355.27 297.751C1381.21 278.387 1397.52 247.67 1397.52 202.4H1395.52ZM1256.12 323C1205.48 323 1164.59 309.043 1139.24 282.509L1137.8 283.891C1163.65 310.957 1205.16 325 1256.12 325V323ZM1137.52 283.2V320H1139.52V283.2H1137.52ZM1138.52 319H1070.12V321H1138.52V319ZM1071.12 320V-4.76837e-06H1069.12V320H1071.12ZM1070.12 0.999995H1138.52V-1H1070.12V0.999995ZM1137.52 -4.76837e-06V121.2H1139.52V-4.76837e-06H1137.52ZM1139.24 121.891C1164.59 95.3572 1205.48 81.4 1256.12 81.4V79.4C1205.16 79.4 1163.65 93.4428 1137.8 120.509L1139.24 121.891ZM1233.32 267.8C1263.98 267.8 1287.82 263.299 1304.01 252.84C1320.3 242.325 1328.72 225.879 1328.72 202.4H1326.72C1326.72 225.321 1318.55 241.075 1302.93 251.16C1287.22 261.301 1263.86 265.8 1233.32 265.8V267.8ZM1328.72 202.4C1328.72 178.725 1320.3 162.178 1304.02 151.611C1287.82 141.101 1263.98 136.6 1233.32 136.6V138.6C1263.86 138.6 1287.22 143.099 1302.93 153.289C1318.54 163.422 1326.72 179.275 1326.72 202.4H1328.72ZM1233.32 136.6C1202.66 136.6 1178.73 141.102 1162.43 151.61C1146.05 162.174 1137.52 178.72 1137.52 202.4H1139.52C1139.52 179.28 1147.8 163.426 1163.51 153.29C1179.32 143.098 1202.78 138.6 1233.32 138.6V136.6ZM1137.52 202.4C1137.52 225.883 1146.05 242.329 1162.43 252.842C1178.73 263.298 1202.66 267.8 1233.32 267.8V265.8C1202.78 265.8 1179.32 261.302 1163.51 251.158C1147.79 241.071 1139.52 225.317 1139.52 202.4H1137.52ZM1650.55 84.4V83.4H1649.91L1649.64 83.9722L1650.55 84.4ZM1726.15 84.4L1727.05 84.8286L1727.73 83.4H1726.15V84.4ZM1566.95 420V421H1567.58L1567.85 420.429L1566.95 420ZM1491.35 420L1490.44 419.57L1489.76 421H1491.35V420ZM1538.95 320L1539.85 320.43L1540.53 319H1538.95V320ZM1503.75 320L1502.86 320.46L1503.14 321H1503.75V320ZM1381.75 84.4V83.4H1380.1L1380.86 84.8598L1381.75 84.4ZM1457.75 84.4L1458.63 83.9397L1458.35 83.4H1457.75V84.4ZM1558.55 278.8L1557.66 279.26L1558.59 281.051L1559.45 279.228L1558.55 278.8ZM1650.55 85.4H1726.15V83.4H1650.55V85.4ZM1725.24 83.9714L1566.04 419.571L1567.85 420.429L1727.05 84.8286L1725.24 83.9714ZM1566.95 419H1491.35V421H1566.95V419ZM1492.25 420.43L1539.85 320.43L1538.04 319.57L1490.44 419.57L1492.25 420.43ZM1538.95 319H1503.75V321H1538.95V319ZM1504.63 319.54L1382.63 83.9401L1380.86 84.8598L1502.86 320.46L1504.63 319.54ZM1381.75 85.4H1457.75V83.4H1381.75V85.4ZM1456.86 84.8603L1557.66 279.26L1559.43 278.34L1458.63 83.9397L1456.86 84.8603ZM1559.45 279.228L1651.45 84.8277L1649.64 83.9722L1557.64 278.372L1559.45 279.228ZM2275.26 40H2276.26V39H2275.26V40ZM1939.26 179.6V178.6H1938.26V179.6H1939.26ZM2011.26 179.6H2012.26V178.6H2011.26V179.6ZM2203.26 100.4H2204.26V99.4H2203.26V100.4ZM2070.46 100.4H2069.46V101.4H2070.46V100.4ZM2070.46 40V39H2069.46V40H2070.46ZM2274.26 40V179.6H2276.26V40H2274.26ZM2274.26 179.6C2274.26 228.02 2261.02 263.796 2233.66 287.494C2206.27 311.218 2164.55 323 2107.26 323V325C2164.77 325 2207.06 313.182 2234.97 289.006C2262.91 264.804 2276.26 228.38 2276.26 179.6H2274.26ZM2107.26 323C2049.77 323 2008.06 311.317 1980.72 287.644C1953.41 263.997 1940.26 228.223 1940.26 179.6H1938.26C1938.26 228.577 1951.52 265.003 1979.41 289.156C2007.27 313.283 2049.56 325 2107.26 325V323ZM1939.26 180.6H2011.26V178.6H1939.26V180.6ZM2010.26 179.6C2010.26 199.255 2012.96 220.558 2026.54 236.938C2040.15 253.355 2064.5 264.6 2107.26 264.6V262.6C2064.82 262.6 2041.17 251.445 2028.08 235.662C2014.96 219.842 2012.26 199.145 2012.26 179.6H2010.26ZM2107.26 264.6C2150.03 264.6 2174.37 253.253 2187.98 236.787C2201.56 220.358 2204.26 199.057 2204.26 179.6H2202.26C2202.26 198.943 2199.56 219.642 2186.44 235.513C2173.35 251.347 2149.7 262.6 2107.26 262.6V264.6ZM2204.26 179.6V100.4H2202.26V179.6H2204.26ZM2203.26 99.4H2070.46V101.4H2203.26V99.4ZM2071.46 100.4V40H2069.46V100.4H2071.46ZM2070.46 41H2275.26V39H2070.46V41ZM2466.43 323C2417.72 323 2377.16 314.212 2348.8 294.775C2320.5 275.382 2304.23 245.307 2304.23 202.4H2302.23C2302.23 245.893 2318.76 276.618 2347.67 296.425C2376.5 316.188 2417.54 325 2466.43 325V323ZM2304.23 202.4C2304.23 159.291 2320.5 129.117 2348.8 109.674C2377.16 90.1883 2417.72 81.4 2466.43 81.4V79.4C2417.54 79.4 2376.5 88.2117 2347.66 108.026C2318.76 127.883 2302.23 158.709 2302.23 202.4H2304.23ZM2466.43 81.4C2514.94 81.4 2555.5 90.188 2583.92 109.675C2612.27 129.119 2628.63 159.293 2628.63 202.4H2630.63C2630.63 158.707 2614 127.881 2585.05 108.025C2556.16 88.212 2515.12 79.4 2466.43 79.4V81.4ZM2628.63 202.4C2628.63 245.305 2612.27 275.38 2583.92 294.775C2555.5 314.212 2514.94 323 2466.43 323V325C2515.12 325 2556.16 316.188 2585.05 296.425C2614 276.62 2630.63 245.895 2630.63 202.4H2628.63ZM2466.43 267.8C2498.06 267.8 2521.91 263.906 2537.87 253.743C2553.93 243.512 2561.83 227.041 2561.83 202.4H2559.83C2559.83 226.559 2552.13 242.288 2536.79 252.057C2521.35 261.894 2498 265.8 2466.43 265.8V267.8ZM2561.83 202.4C2561.83 177.562 2553.93 160.991 2537.87 150.708C2521.91 140.494 2498.06 136.6 2466.43 136.6V138.6C2498 138.6 2521.35 142.506 2536.79 152.392C2552.13 162.209 2559.83 178.038 2559.83 202.4H2561.83ZM2466.43 136.6C2434.6 136.6 2410.65 140.494 2394.64 150.707C2378.53 160.99 2370.63 177.562 2370.63 202.4H2372.63C2372.63 178.038 2380.33 162.21 2395.72 152.393C2411.21 142.506 2434.66 138.6 2466.43 138.6V136.6ZM2370.63 202.4C2370.63 227.042 2378.53 243.513 2394.65 253.744C2410.65 263.906 2434.6 267.8 2466.43 267.8V265.8C2434.66 265.8 2411.21 261.894 2395.72 252.056C2380.33 242.287 2372.63 226.558 2372.63 202.4H2370.63ZM2901.73 235.6V234.6H2901.21L2900.91 235.017L2901.73 235.6ZM2969.73 235.6L2970.69 235.852L2971.02 234.6H2969.73V235.6ZM2973.73 218.4V219.4H2974.73V218.4H2973.73ZM2719.33 218.4V217.4H2718.1L2718.34 218.598L2719.33 218.4ZM2721.73 174.8L2720.77 174.491L2720.35 175.8H2721.73V174.8ZM2900.53 174.8V175.8H2901.93L2901.47 174.47L2900.53 174.8ZM2808.53 269.4C2855.8 269.4 2885.04 260.596 2902.54 236.183L2900.91 235.017C2884.01 258.604 2855.65 267.4 2808.53 267.4V269.4ZM2901.73 236.6H2969.73V234.6H2901.73V236.6ZM2968.76 235.348C2961.03 265.057 2942.73 286.938 2915.51 301.417C2888.25 315.913 2852.03 323 2808.53 323V325C2852.22 325 2888.8 317.887 2916.44 303.183C2944.12 288.462 2962.82 266.143 2970.69 235.852L2968.76 235.348ZM2808.53 323C2763.83 323 2724.26 314.217 2695.89 294.775C2667.58 275.371 2650.32 245.287 2650.32 202.4H2648.32C2648.32 245.913 2665.87 276.629 2694.76 296.425C2723.59 316.183 2763.62 325 2808.53 325V323ZM2650.32 202.4C2650.32 159.302 2667.08 129.125 2695.64 109.676C2724.25 90.1869 2764.82 81.4 2812.53 81.4V79.4C2764.63 79.4 2723.6 88.2131 2694.51 108.023C2665.37 127.875 2648.32 158.698 2648.32 202.4H2650.32ZM2812.53 81.4C2857.24 81.4 2897.29 89.092 2926.14 110.01C2954.92 130.882 2972.73 165.046 2972.73 218.4H2974.73C2974.73 164.554 2956.73 129.718 2927.31 108.39C2897.96 87.108 2857.41 79.4 2812.53 79.4V81.4ZM2973.73 217.4H2719.33V219.4H2973.73V217.4ZM2718.34 218.598C2722.21 237.729 2733.33 250.471 2749.23 258.395C2765.08 266.294 2785.66 269.4 2808.53 269.4V267.4C2785.79 267.4 2765.57 264.306 2750.12 256.605C2734.72 248.929 2724.04 236.671 2720.31 218.202L2718.34 218.598ZM2812.13 131.4C2788.68 131.4 2768.62 133.7 2753.04 140.228C2737.4 146.777 2726.27 157.584 2720.77 174.491L2722.68 175.109C2727.98 158.816 2738.65 148.423 2753.81 142.072C2769.03 135.7 2788.77 133.4 2812.13 133.4V131.4ZM2721.73 175.8H2900.53V173.8H2721.73V175.8ZM2901.47 174.47C2895.56 157.57 2884.04 146.774 2868.56 140.229C2853.13 133.702 2833.78 131.4 2812.13 131.4V133.4C2833.67 133.4 2852.72 135.698 2867.79 142.071C2882.81 148.426 2893.89 158.83 2899.58 175.13L2901.47 174.47ZM3182.92 223.6V222.6H3181.92V223.6H3182.92ZM3254.92 223.6H3255.92V222.6H3254.92V223.6ZM3361.72 204.8L3361.77 203.801L3361.76 203.801L3361.72 204.8ZM3528.52 131.6V132.6H3529.52V131.6H3528.52ZM3456.52 131.6H3455.52V132.6H3456.52V131.6ZM3361.72 151.2L3361.66 152.198L3361.66 152.199L3361.72 151.2ZM3182.92 224.6H3254.92V222.6H3182.92V224.6ZM3253.92 223.6C3253.92 231.136 3255.45 237.749 3259.27 243.397C3263.08 249.044 3269.12 253.625 3277.94 257.226C3295.54 264.407 3324.52 267.8 3370.12 267.8V265.8C3324.52 265.8 3295.9 262.393 3278.7 255.374C3270.12 251.875 3264.46 247.506 3260.92 242.278C3257.39 237.051 3255.92 230.864 3255.92 223.6H3253.92ZM3370.12 267.8C3407.91 267.8 3432.66 265.705 3447.97 260.802C3455.65 258.346 3461.05 255.156 3464.54 251.081C3468.04 246.983 3469.52 242.087 3469.52 236.4H3467.52C3467.52 241.713 3466.15 246.117 3463.01 249.781C3459.86 253.469 3454.84 256.504 3447.36 258.898C3432.38 263.695 3407.92 265.8 3370.12 265.8V267.8ZM3469.52 236.4C3469.52 230.495 3468.5 225.633 3465.39 221.675C3462.28 217.732 3457.21 214.84 3449.45 212.59C3433.96 208.099 3407.12 205.999 3361.77 203.801L3361.67 205.799C3407.12 208.001 3433.68 210.101 3448.89 214.51C3456.48 216.71 3461.08 219.443 3463.81 222.912C3466.53 226.367 3467.52 230.705 3467.52 236.4H3469.52ZM3361.76 203.801C3300.76 201.001 3258.35 194.8 3231.21 181.551C3217.67 174.941 3207.97 166.597 3201.64 156.079C3195.32 145.556 3192.32 132.772 3192.32 117.2H3190.32C3190.32 133.028 3193.37 146.194 3199.93 157.109C3206.49 168.028 3216.52 176.609 3230.33 183.349C3257.89 196.8 3300.68 202.999 3361.67 205.799L3361.76 203.801ZM3192.32 117.2C3192.32 101.979 3196.19 89.415 3203.58 79.1075C3210.98 68.7911 3221.94 60.665 3236.22 54.4161C3264.82 41.9037 3306.54 37 3358.92 37V35C3306.49 35 3264.42 39.8963 3235.42 52.5838C3220.9 58.935 3209.61 67.2589 3201.96 77.9425C3194.29 88.6349 3190.32 101.621 3190.32 117.2H3192.32ZM3358.92 37C3411.67 37 3453.87 43.5999 3482.86 58.7364C3497.33 66.2961 3508.48 75.9722 3516.02 87.9998C3523.56 100.025 3527.52 114.46 3527.52 131.6H3529.52C3529.52 114.14 3525.48 99.3254 3517.72 86.9377C3509.95 74.5528 3498.51 64.6539 3483.78 56.9636C3454.36 41.6001 3411.77 35 3358.92 35V37ZM3528.52 130.6H3456.52V132.6H3528.52V130.6ZM3457.52 131.6C3457.52 123.724 3455.55 117.238 3451.32 111.98C3447.1 106.737 3440.72 102.814 3432.09 99.9024C3414.86 94.093 3388.31 92.2 3350.92 92.2V94.2C3388.33 94.2 3414.58 96.107 3431.45 101.798C3439.87 104.636 3445.86 108.388 3449.76 113.233C3453.64 118.062 3455.52 124.076 3455.52 131.6H3457.52ZM3350.92 92.2C3315.54 92.2 3293.48 93.8925 3280.26 98.2502C3273.62 100.437 3269.1 103.328 3266.25 107.111C3263.4 110.903 3262.32 115.466 3262.32 120.8H3264.32C3264.32 115.734 3265.34 111.647 3267.85 108.314C3270.36 104.972 3274.47 102.263 3280.88 100.15C3293.76 95.9075 3315.5 94.2 3350.92 94.2V92.2ZM3262.32 120.8C3262.32 126.327 3263.39 130.888 3266.44 134.62C3269.48 138.331 3274.35 141.083 3281.63 143.258C3296.17 147.599 3320.9 149.801 3361.66 152.198L3361.78 150.202C3320.94 147.799 3296.47 145.601 3282.2 141.342C3275.09 139.217 3270.66 136.619 3267.99 133.355C3265.34 130.112 3264.32 126.073 3264.32 120.8H3262.32ZM3361.66 152.199C3416.92 155.201 3461.45 158.201 3492.18 169.241C3507.52 174.751 3519.33 182.235 3527.31 192.646C3535.29 203.046 3539.52 216.467 3539.52 234H3541.52C3541.52 216.133 3537.2 202.254 3528.9 191.429C3520.61 180.615 3508.42 172.949 3492.86 167.359C3461.79 156.199 3416.92 153.199 3361.77 150.201L3361.66 152.199ZM3539.52 234C3539.52 252.537 3535.13 267.303 3527.01 279.05C3518.89 290.802 3506.97 299.61 3491.77 306.131C3461.33 319.193 3417.91 323 3366.12 323V325C3417.92 325 3461.71 321.207 3492.56 307.969C3508.01 301.34 3520.27 292.323 3528.66 280.187C3537.05 268.047 3541.52 252.863 3541.52 234H3539.52ZM3366.12 323C3308.73 323 3263.13 318.092 3231.9 303.197C3216.31 295.762 3204.34 285.853 3196.25 272.847C3188.16 259.839 3183.92 243.657 3183.92 223.6H3181.92C3181.92 243.943 3186.23 260.511 3194.55 273.903C3202.88 287.297 3215.18 297.438 3231.04 305.003C3262.71 320.108 3308.71 325 3366.12 325V323ZM4078.96 188L4079.96 188.006L4079.96 187.998L4079.96 187.991L4078.96 188ZM4078.16 320V321H4079.15L4079.16 320.006L4078.16 320ZM4009.76 320H4008.76V321H4009.76V320ZM3860.56 175.6L3859.89 174.858L3859.51 175.197L3859.56 175.699L3860.56 175.6ZM3860.96 188L3861.96 188.006V188H3860.96ZM3860.16 320V321H3861.15L3861.16 320.006L3860.16 320ZM3791.76 320H3790.76V321H3791.76V320ZM3636.96 181.2L3636.23 180.521L3635.96 180.809V181.2H3636.96ZM3636.96 320V321H3637.96V320H3636.96ZM3568.56 320H3567.56V321H3568.56V320ZM3568.56 84.4V83.4H3567.56V84.4H3568.56ZM3636.96 84.4H3637.96V83.4H3636.96V84.4ZM3636.96 122.8H3635.96V124.876L3637.58 123.582L3636.96 122.8ZM3846.56 123.6L3845.68 124.081L3846.24 125.092L3847.16 124.4L3846.56 123.6ZM3977.36 81.4C4003.64 81.4 4028.56 86.9779 4047 103.005C4065.42 119.01 4077.56 145.596 4077.96 188.009L4079.96 187.991C4079.56 145.204 4067.3 117.99 4048.32 101.495C4029.36 85.022 4003.88 79.4 3977.36 79.4V81.4ZM4077.96 187.994L4077.16 319.994L4079.16 320.006L4079.96 188.006L4077.96 187.994ZM4078.16 319H4009.76V321H4078.16V319ZM4010.76 320V215.6H4008.76V320H4010.76ZM4010.76 215.6C4010.76 190.615 4008.68 171.334 4000.3 158.309C3991.84 145.156 3977.13 138.6 3952.56 138.6V140.6C3976.79 140.6 3990.68 147.044 3998.62 159.391C4006.64 171.866 4008.76 190.585 4008.76 215.6H4010.76ZM3952.56 138.6C3916.27 138.6 3880.84 155.92 3859.89 174.858L3861.23 176.342C3881.88 157.68 3916.85 140.6 3952.56 140.6V138.6ZM3859.56 175.699C3859.96 179.641 3859.96 183.591 3859.96 188H3861.96C3861.96 183.609 3861.96 179.559 3861.55 175.5L3859.56 175.699ZM3859.96 187.994L3859.16 319.994L3861.16 320.006L3861.96 188.006L3859.96 187.994ZM3860.16 319H3791.76V321H3860.16V319ZM3792.76 320V215.6H3790.76V320H3792.76ZM3792.76 215.6C3792.76 190.615 3790.68 171.334 3782.3 158.309C3773.84 145.156 3759.13 138.6 3734.56 138.6V140.6C3758.79 140.6 3772.68 147.044 3780.62 159.391C3788.64 171.866 3790.76 190.585 3790.76 215.6H3792.76ZM3734.56 138.6C3694.66 138.6 3656 159.133 3636.23 180.521L3637.69 181.879C3657.12 160.867 3695.26 140.6 3734.56 140.6V138.6ZM3635.96 181.2V320H3637.96V181.2H3635.96ZM3636.96 319H3568.56V321H3636.96V319ZM3569.56 320V84.4H3567.56V320H3569.56ZM3568.56 85.4H3636.96V83.4H3568.56V85.4ZM3635.96 84.4V122.8H3637.96V84.4H3635.96ZM3637.58 123.582C3663.06 103.281 3701.24 81.4 3759.36 81.4V79.4C3700.67 79.4 3662.06 101.518 3636.34 122.018L3637.58 123.582ZM3759.36 81.4C3794.79 81.4 3827.94 91.7438 3845.68 124.081L3847.44 123.119C3829.18 89.8562 3795.13 79.4 3759.36 79.4V81.4ZM3847.16 124.4C3877.42 101.703 3919.22 81.4 3977.36 81.4V79.4C3918.7 79.4 3876.5 99.8974 3845.96 122.8L3847.16 124.4ZM4111.14 -4.76837e-06V-1H4110.14V-4.76837e-06H4111.14ZM4179.54 -4.76837e-06H4180.54V-1H4179.54V-4.76837e-06ZM4179.54 59.6V60.6H4180.54V59.6H4179.54ZM4111.14 59.6H4110.14V60.6H4111.14V59.6ZM4111.14 84.4V83.4H4110.14V84.4H4111.14ZM4179.54 84.4H4180.54V83.4H4179.54V84.4ZM4179.54 320V321H4180.54V320H4179.54ZM4111.14 320H4110.14V321H4111.14V320ZM4111.14 0.999995H4179.54V-1H4111.14V0.999995ZM4178.54 -4.76837e-06V59.6H4180.54V-4.76837e-06H4178.54ZM4179.54 58.6H4111.14V60.6H4179.54V58.6ZM4112.14 59.6V-4.76837e-06H4110.14V59.6H4112.14ZM4111.14 85.4H4179.54V83.4H4111.14V85.4ZM4178.54 84.4V320H4180.54V84.4H4178.54ZM4179.54 319H4111.14V321H4179.54V319ZM4112.14 320V84.4H4110.14V320H4112.14ZM4445.63 141.6V142.6H4446.63V141.6H4445.63ZM4334.03 141.6V140.6H4333.03V141.6H4334.03ZM4445.63 262.8H4446.63V261.645L4445.49 261.81L4445.63 262.8ZM4445.63 318L4445.8 318.985L4446.63 318.84V318H4445.63ZM4265.23 141.6H4266.23V140.6H4265.23V141.6ZM4203.23 141.6H4202.23V142.6H4203.23V141.6ZM4203.23 84.4V83.4H4202.23V84.4H4203.23ZM4265.23 84.4V85.4H4266.23V84.4H4265.23ZM4265.23 35.6L4264.96 34.6383L4264.23 34.8451V35.6H4265.23ZM4334.03 16H4335.03V14.6753L4333.76 15.0382L4334.03 16ZM4334.03 84.4H4333.03V85.4H4334.03V84.4ZM4445.63 84.4H4446.63V83.4H4445.63V84.4ZM4445.63 140.6H4334.03V142.6H4445.63V140.6ZM4333.03 141.6V209.6H4335.03V141.6H4333.03ZM4333.03 209.6C4333.03 221.021 4333.58 230.372 4335.08 237.968C4336.57 245.568 4339.02 251.476 4342.87 255.952C4350.59 264.924 4363.63 267.8 4384.43 267.8V265.8C4363.63 265.8 4351.47 262.876 4344.39 254.648C4340.84 250.524 4338.49 244.982 4337.04 237.582C4335.58 230.178 4335.03 220.979 4335.03 209.6H4333.03ZM4384.43 267.8C4406.05 267.8 4418.11 267.799 4445.77 263.79L4445.49 261.81C4417.96 265.801 4406.01 265.8 4384.43 265.8V267.8ZM4444.63 262.8V318H4446.63V262.8H4444.63ZM4445.46 317.015C4422.73 321.002 4396.79 323 4365.23 323V325C4396.87 325 4422.93 322.998 4445.8 318.985L4445.46 317.015ZM4365.23 323C4334.93 323 4310.17 317.314 4293.01 305.281C4275.9 293.289 4266.23 274.912 4266.23 249.2H4264.23C4264.23 275.488 4274.16 294.511 4291.86 306.919C4309.5 319.286 4334.73 325 4365.23 325V323ZM4266.23 249.2V141.6H4264.23V249.2H4266.23ZM4265.23 140.6H4203.23V142.6H4265.23V140.6ZM4204.23 141.6V84.4H4202.23V141.6H4204.23ZM4203.23 85.4H4265.23V83.4H4203.23V85.4ZM4266.23 84.4V35.6H4264.23V84.4H4266.23ZM4265.51 36.5617L4334.31 16.9617L4333.76 15.0382L4264.96 34.6383L4265.51 36.5617ZM4333.03 16V84.4H4335.03V16H4333.03ZM4334.03 85.4H4445.63V83.4H4334.03V85.4ZM4444.63 84.4V141.6H4446.63V84.4H4444.63ZM4801.64 189.6L4802.64 189.606L4802.64 189.598L4802.64 189.591L4801.64 189.6ZM4800.84 320V321H4801.83L4801.84 320.006L4800.84 320ZM4732.04 320H4731.04V321H4732.04V320ZM4542.04 188L4541.28 187.35L4541.04 187.631V188H4542.04ZM4542.04 320V321H4543.04V320H4542.04ZM4473.64 320H4472.64V321H4473.64V320ZM4473.64 -4.76837e-06V-1H4472.64V-4.76837e-06H4473.64ZM4542.04 -4.76837e-06H4543.04V-1H4542.04V-4.76837e-06ZM4542.04 125.6H4541.04V127.657L4542.66 126.386L4542.04 125.6ZM4679.24 81.4C4710.55 81.4 4740.7 86.9895 4763.1 103.259C4785.44 119.487 4800.24 146.459 4800.64 189.609L4802.64 189.591C4802.24 145.941 4787.23 118.313 4764.28 101.641C4741.38 85.0104 4710.73 79.4 4679.24 79.4V81.4ZM4800.64 189.594L4799.84 319.994L4801.84 320.006L4802.64 189.606L4800.64 189.594ZM4800.84 319H4732.04V321H4800.84V319ZM4733.04 320V215.6H4731.04V320H4733.04ZM4733.04 215.6C4733.04 190.531 4728.84 171.22 4717.34 158.188C4705.81 145.128 4687.17 138.6 4658.84 138.6V140.6C4686.91 140.6 4704.86 147.072 4715.84 159.512C4726.84 171.98 4731.04 190.669 4731.04 215.6H4733.04ZM4658.84 138.6C4635.68 138.6 4611.64 144.539 4590.74 153.582C4569.85 162.621 4552.01 174.799 4541.28 187.35L4542.8 188.65C4553.27 176.401 4570.82 164.379 4591.53 155.418C4612.23 146.461 4636 140.6 4658.84 140.6V138.6ZM4541.04 188V320H4543.04V188H4541.04ZM4542.04 319H4473.64V321H4542.04V319ZM4474.64 320V-4.76837e-06H4472.64V320H4474.64ZM4473.64 0.999995H4542.04V-1H4473.64V0.999995ZM4541.04 -4.76837e-06V125.6H4543.04V-4.76837e-06H4541.04ZM4542.66 126.386C4576.08 100.123 4622.26 81.4 4679.24 81.4V79.4C4621.81 79.4 4575.19 98.2774 4541.42 124.814L4542.66 126.386ZM5090.56 40H5091.56V39H5090.56V40ZM5090.56 320V321H5091.56V320H5090.56ZM5018.56 320H5017.56V321H5018.56V320ZM5018.56 40V39H5017.56V40H5018.56ZM5089.56 40V320H5091.56V40H5089.56ZM5090.56 319H5018.56V321H5090.56V319ZM5019.56 320V40H5017.56V320H5019.56ZM5018.56 41H5090.56V39H5018.56V41ZM5194.47 40H5195.47V39H5194.47V40ZM5194.47 320V321H5195.47V320H5194.47ZM5122.47 320H5121.47V321H5122.47V320ZM5122.47 40V39H5121.47V40H5122.47ZM5193.47 40V320H5195.47V40H5193.47ZM5194.47 319H5122.47V321H5194.47V319ZM5123.47 320V40H5121.47V320H5123.47ZM5122.47 41H5194.47V39H5122.47V41ZM5298.37 40H5299.37V39H5298.37V40ZM5298.37 320V321H5299.37V320H5298.37ZM5226.37 320H5225.37V321H5226.37V320ZM5226.37 40V39H5225.37V40H5226.37ZM5297.37 40V320H5299.37V40H5297.37ZM5298.37 319H5226.37V321H5298.37V319ZM5227.37 320V40H5225.37V320H5227.37ZM5226.37 41H5298.37V39H5226.37V41Z" fill="white" mask="url(#path-1-outside-1_39_4)"/>
</svg>
