<svg width="3418" height="258" viewBox="0 0 3418 258" fill="none" xmlns="http://www.w3.org/2000/svg">
<path fill-rule="evenodd" clip-rule="evenodd" d="M3417.37 258H3376.97V0H3417.37V258ZM3403.57 244.2H3390.77V13.8H3403.57V244.2ZM3402.57 14.8H3391.77V243.2H3402.57V14.8ZM3416.37 257V1H3377.97V257H3416.37Z" fill="white"/>
<path fill-rule="evenodd" clip-rule="evenodd" d="M3332.61 258H3292.21V0H3332.61V258ZM3318.81 244.2H3306.01V13.8H3318.81V244.2ZM3317.81 14.8H3307.01V243.2H3317.81V14.8ZM3331.61 257V1H3293.21V257H3331.61Z" fill="white"/>
<path fill-rule="evenodd" clip-rule="evenodd" d="M3247.84 258H3207.44V0H3247.84V258ZM3234.04 244.2H3221.24V13.8H3234.04V244.2ZM3233.04 14.8H3222.24V243.2H3233.04V14.8ZM3246.84 257V1H3208.44V257H3246.84Z" fill="white"/>
<path fill-rule="evenodd" clip-rule="evenodd" d="M2893.54 258H2853.14V0H2893.54V102.4H3006.74V0H3047.14V258H3006.74V142.8H2893.54V258ZM3007.74 141.8V257H3046.14V1H3007.74V103.4H2892.54V1H2854.14V257H2892.54V141.8H3007.74ZM2878.74 128H3021.54V243.2H3032.34V14.8H3021.54V117.2H2878.74V14.8H2867.94V243.2H2878.74V128ZM2879.74 244.2H2866.94V13.8H2879.74V116.2H3020.54V13.8H3033.34V244.2H3020.54V129H2879.74V244.2Z" fill="white"/>
<path fill-rule="evenodd" clip-rule="evenodd" d="M2740.42 258H2700.02V40.4H2610.42V0H2830.02V40.4H2740.42V258ZM2701.02 39.4V257H2739.42V39.4H2829.02V1H2611.42V39.4H2701.02ZM2725.62 25.6H2815.22V14.8H2625.22V25.6H2714.82V243.2H2725.62V25.6ZM2726.62 244.2H2713.82V26.6H2624.22V13.8H2816.22V26.6H2726.62V244.2Z" fill="white"/>
<path fill-rule="evenodd" clip-rule="evenodd" d="M2588.86 258H2548.46V0H2588.86V258ZM2575.06 244.2H2562.26V13.8H2575.06V244.2ZM2574.06 14.8H2563.26V243.2H2574.06V14.8ZM2587.86 257V1H2549.46V257H2587.86Z" fill="white"/>
<path fill-rule="evenodd" clip-rule="evenodd" d="M2299.4 258H2259V0H2325V38.4H2337.8V64H2350.6V102.4H2363.4V140.8H2376.2V192H2387V140.8H2399.8V102.4H2412.6V64H2425.4V38.4H2438.2V0H2504.2V258H2463.8V66H2453V91.6H2440.2V142.8H2427.4V194H2414.6V232.4H2401.8V258H2361.4V232.4H2348.6V194H2335.8V142.8H2323V91.6H2310.2V66H2299.4V258ZM2311.2 65V90.6H2324V141.8H2336.8V193H2349.6V231.4H2362.4V257H2400.8V231.4H2413.6V193H2426.4V141.8H2439.2V90.6H2452V65H2464.8V257H2503.2V1H2439.2V39.4H2426.4V65H2413.6V103.4H2400.8V141.8H2388V193H2375.2V141.8H2362.4V103.4H2349.6V65H2336.8V39.4H2324V1H2260V257H2298.4V65H2311.2ZM2284.6 51.2H2310.2V14.8H2273.8V243.2H2284.6V51.2ZM2285.6 244.2H2272.8V13.8H2311.2V52.2H2285.6V244.2ZM2478.6 51.2V243.2H2489.4V14.8H2453V51.2H2478.6ZM2452 13.8H2490.4V244.2H2477.6V52.2H2452V13.8ZM2376.2 217.6V243.2H2387V217.6H2399.8V206.8H2363.4V217.6H2376.2ZM2362.4 205.8H2400.8V218.6H2388V244.2H2375.2V218.6H2362.4V205.8ZM2413.6 180.2H2400.8V154.6H2413.6V180.2ZM2412.6 155.6H2401.8V179.2H2412.6V155.6ZM2362.4 180.2H2349.6V154.6H2362.4V180.2ZM2361.4 155.6H2350.6V179.2H2361.4V155.6ZM2349.6 129H2336.8V116.2H2349.6V129ZM2348.6 117.2H2337.8V128H2348.6V117.2ZM2426.4 129H2413.6V116.2H2426.4V129ZM2425.4 117.2H2414.6V128H2425.4V117.2Z" fill="white"/>
<path fill-rule="evenodd" clip-rule="evenodd" d="M2168.34 258H2102.34V245.2H2076.74V232.4H2063.94V219.6H2051.14V192H2091.54V204.8H2104.34V217.6H2166.34V204.8H2179.14V168.4H2166.34V155.6H2153.54V142.8H2115.14V130H2076.74V117.2H2063.94V104.4H2051.14V38.4H2063.94V25.6H2076.74V12.8H2089.54V0H2181.14V12.8H2193.94V25.6H2206.74V53.2H2166.34V40.4H2104.34V53.2H2091.54V89.6H2117.14V102.4H2155.54V115.2H2181.14V128H2206.74V153.6H2219.54V219.6H2206.74V232.4H2193.94V245.2H2168.34V258ZM2192.94 231.4H2205.74V218.6H2218.54V154.6H2205.74V129H2180.14V116.2H2154.54V103.4H2116.14V90.6H2090.54V52.2H2103.34V39.4H2167.34V52.2H2205.74V26.6H2192.94V13.8H2180.14V1H2090.54V13.8H2077.74V26.6H2064.94V39.4H2052.14V103.4H2064.94V116.2H2077.74V129H2116.14V141.8H2154.54V154.6H2167.34V167.4H2180.14V205.8H2167.34V218.6H2103.34V205.8H2090.54V193H2052.14V218.6H2064.94V231.4H2077.74V244.2H2103.34V257H2167.34V244.2H2192.94V231.4ZM2103.34 13.8V26.6H2167.34V13.8H2103.34ZM2166.34 14.8H2104.34V25.6H2166.34V14.8ZM2064.94 52.2H2077.74V90.6H2064.94V52.2ZM2065.94 89.6H2076.74V53.2H2065.94V89.6ZM2205.74 205.8H2192.94V167.4H2205.74V205.8ZM2204.74 168.4H2193.94V204.8H2204.74V168.4ZM2154.54 244.2H2116.14V231.4H2154.54V244.2ZM2153.54 232.4H2117.14V243.2H2153.54V232.4ZM2141.74 116.2V129H2128.94V116.2H2141.74ZM2129.94 117.2V128H2140.74V117.2H2129.94ZM2103.34 103.4V116.2H2090.54V103.4H2103.34ZM2091.54 104.4V115.2H2102.34V104.4H2091.54ZM2192.94 141.8V154.6H2180.14V141.8H2192.94ZM2181.14 142.8V153.6H2191.94V142.8H2181.14Z" fill="white"/>
<path fill-rule="evenodd" clip-rule="evenodd" d="M1892.73 258H1737.13V0H1892.73V40.4H1777.53V102.4H1892.73V142.8H1777.53V217.6H1892.73V258ZM1776.53 218.6V141.8H1891.73V103.4H1776.53V39.4H1891.73V1H1738.13V257H1891.73V218.6H1776.53ZM1762.73 232.4V128H1877.93V117.2H1762.73V25.6H1877.93V14.8H1751.93V243.2H1877.93V232.4H1762.73ZM1878.93 231.4V244.2H1750.93V13.8H1878.93V26.6H1763.73V116.2H1878.93V129H1763.73V231.4H1878.93Z" fill="white"/>
<path fill-rule="evenodd" clip-rule="evenodd" d="M1598.9 204.8H1624.5V192H1637.3V179.2H1650.1V153.6H1662.9V104.4H1650.1V78.8H1637.3V66H1624.5V53.2H1598.9V40.4H1562.5V53.2H1536.9V66H1524.1V78.8H1511.3V104.4H1498.5V153.6H1511.3V179.2H1524.1V192H1536.9V204.8H1562.5V217.6H1598.9V204.8ZM1599.9 218.6H1561.5V205.8H1535.9V193H1523.1V180.2H1510.3V154.6H1497.5V103.4H1510.3V77.8H1523.1V65H1535.9V52.2H1561.5V39.4H1599.9V52.2H1625.5V65H1638.3V77.8H1651.1V103.4H1663.9V154.6H1651.1V180.2H1638.3V193H1625.5V205.8H1599.9V218.6ZM1613.7 258H1547.7V245.2H1509.3V232.4H1496.5V219.6H1483.7V206.8H1470.9V181.2H1458.1V76.8H1470.9V51.2H1483.7V38.4H1496.5V25.6H1509.3V12.8H1547.7V0H1613.7V12.8H1652.1V25.6H1664.9V38.4H1677.7V51.2H1690.5V76.8H1703.3V181.2H1690.5V206.8H1677.7V219.6H1664.9V232.4H1652.1V245.2H1613.7V258ZM1651.1 231.4H1663.9V218.6H1676.7V205.8H1689.5V180.2H1702.3V77.8H1689.5V52.2H1676.7V39.4H1663.9V26.6H1651.1V13.8H1612.7V1H1548.7V13.8H1510.3V26.6H1497.5V39.4H1484.7V52.2H1471.9V77.8H1459.1V180.2H1471.9V205.8H1484.7V218.6H1497.5V231.4H1510.3V244.2H1548.7V257H1612.7V244.2H1651.1V231.4ZM1689.5 167.4H1676.7V90.6H1689.5V167.4ZM1688.5 91.6H1677.7V166.4H1688.5V91.6ZM1676.7 90.6V65H1663.9V52.2H1651.1V39.4H1638.3V26.6H1612.7V39.4H1638.3V52.2H1651.1V65H1663.9V90.6H1676.7ZM1675.7 89.6V66H1664.9V89.6H1675.7ZM1652.1 64H1662.9V53.2H1652.1V64ZM1639.3 51.2H1650.1V40.4H1639.3V51.2ZM1613.7 27.6V38.4H1637.3V27.6H1613.7ZM1676.7 167.4H1663.9V193H1651.1V205.8H1638.3V218.6H1612.7V231.4H1638.3V218.6H1651.1V205.8H1663.9V193H1676.7V167.4ZM1675.7 168.4H1664.9V192H1675.7V168.4ZM1662.9 194H1652.1V204.8H1662.9V194ZM1650.1 206.8H1639.3V217.6H1650.1V206.8ZM1637.3 219.6H1613.7V230.4H1637.3V219.6ZM1548.7 231.4H1523.1V218.6H1548.7V231.4ZM1523.1 218.6V205.8H1510.3V193H1497.5V167.4H1484.7V90.6H1497.5V65H1510.3V52.2H1523.1V39.4H1548.7V26.6H1523.1V39.4H1510.3V52.2H1497.5V65H1484.7V90.6H1471.9V167.4H1484.7V193H1497.5V205.8H1510.3V218.6H1523.1ZM1522.1 217.6V206.8H1511.3V217.6H1522.1ZM1498.5 204.8H1509.3V194H1498.5V204.8ZM1485.7 192H1496.5V168.4H1485.7V192ZM1472.9 166.4H1483.7V91.6H1472.9V166.4ZM1485.7 89.6H1496.5V66H1485.7V89.6ZM1498.5 64H1509.3V53.2H1498.5V64ZM1511.3 51.2H1522.1V40.4H1511.3V51.2ZM1524.1 38.4H1547.7V27.6H1524.1V38.4ZM1524.1 219.6V230.4H1547.7V219.6H1524.1ZM1599.9 244.2H1561.5V231.4H1599.9V244.2ZM1598.9 232.4H1562.5V243.2H1598.9V232.4ZM1599.9 13.8V26.6H1561.5V13.8H1599.9ZM1562.5 14.8V25.6H1598.9V14.8H1562.5Z" fill="white"/>
<path fill-rule="evenodd" clip-rule="evenodd" d="M1380.59 258H1314.59V245.2H1288.99V219.6H1276.19V166.4H1316.59V204.8H1329.39V217.6H1365.79V204.8H1378.59V0H1418.99V219.6H1406.19V245.2H1380.59V258ZM1405.19 218.6H1417.99V1H1379.59V205.8H1366.79V218.6H1328.39V205.8H1315.59V167.4H1277.19V218.6H1289.99V244.2H1315.59V257H1379.59V244.2H1405.19V218.6ZM1405.19 205.8H1392.39V13.8H1405.19V205.8ZM1404.19 14.8H1393.39V204.8H1404.19V14.8ZM1366.79 244.2H1328.39V231.4H1366.79V244.2ZM1365.79 232.4H1329.39V243.2H1365.79V232.4ZM1302.79 180.2V205.8H1289.99V180.2H1302.79ZM1290.99 181.2V204.8H1301.79V181.2H1290.99ZM1392.39 231.4H1379.59V218.6H1392.39V231.4ZM1391.39 219.6H1380.59V230.4H1391.39V219.6ZM1315.59 218.6V231.4H1302.79V218.6H1315.59ZM1303.79 219.6V230.4H1314.59V219.6H1303.79Z" fill="white"/>
<path fill-rule="evenodd" clip-rule="evenodd" d="M1055.14 258H1014.74V168.4H1001.94V142.8H989.137V117.2H976.337V91.6H963.537V66H950.737V40.4H937.937V14.8H925.137V0H978.337V25.6H991.137V51.2H1003.94V76.8H1016.74V102.4H1029.54V128H1040.34V102.4H1053.14V76.8H1065.94V51.2H1078.74V25.6H1091.54V0H1144.74V14.8H1131.94V40.4H1119.14V66H1106.34V91.6H1093.54V117.2H1080.74V142.8H1067.94V168.4H1055.14V258ZM1066.94 141.8H1079.74V116.2H1092.54V90.6H1105.34V65H1118.14V39.4H1130.94V13.8H1143.74V1H1092.54V26.6H1079.74V52.2H1066.94V77.8H1054.14V103.4H1041.34V129H1028.54V103.4H1015.74V77.8H1002.94V52.2H990.137V26.6H977.337V1H926.137V13.8H938.937V39.4H951.737V65H964.537V90.6H977.337V116.2H990.137V141.8H1002.94V167.4H1015.74V257H1054.14V167.4H1066.94V141.8ZM1040.34 153.6H1053.14V142.8H1016.74V153.6H1029.54V243.2H1040.34V153.6ZM1041.34 244.2H1028.54V154.6H1015.74V141.8H1054.14V154.6H1041.34V244.2ZM977.337 39.4V52.2H964.537V39.4H977.337ZM965.537 40.4V51.2H976.337V40.4H965.537ZM990.137 65V77.8H977.337V65H990.137ZM978.337 66V76.8H989.137V66H978.337ZM1002.94 90.6V103.4H990.137V90.6H1002.94ZM991.137 91.6V102.4H1001.94V91.6H991.137ZM1015.74 116.2V129H1002.94V116.2H1015.74ZM1003.94 117.2V128H1014.74V117.2H1003.94ZM1079.74 103.4H1066.94V90.6H1079.74V103.4ZM1078.74 91.6H1067.94V102.4H1078.74V91.6ZM1118.14 26.6H1105.34V13.8H1118.14V26.6ZM1117.14 14.8H1106.34V25.6H1117.14V14.8ZM1105.34 52.2H1092.54V39.4H1105.34V52.2ZM1104.34 40.4H1093.54V51.2H1104.34V40.4ZM1092.54 77.8H1079.74V65H1092.54V77.8ZM1091.54 66H1080.74V76.8H1091.54V66ZM964.537 13.8V26.6H951.737V13.8H964.537ZM952.737 14.8V25.6H963.537V14.8H952.737ZM1066.94 129H1054.14V116.2H1066.94V129ZM1065.94 117.2H1055.14V128H1065.94V117.2Z" fill="white"/>
<path fill-rule="evenodd" clip-rule="evenodd" d="M831.234 89.6H844.034V53.2H831.234V40.4H756.434V102.4H831.234V89.6ZM832.234 103.4H755.434V39.4H832.234V52.2H845.034V90.6H832.234V103.4ZM844.034 204.8H856.834V155.6H844.034V142.8H756.434V217.6H844.034V204.8ZM845.034 218.6H755.434V141.8H845.034V154.6H857.834V205.8H845.034V218.6ZM858.834 258H716.034V0H846.034V12.8H858.834V25.6H871.634V38.4H884.434V104.4H871.634V128H884.434V140.8H897.234V219.6H884.434V232.4H871.634V245.2H858.834V258ZM857.834 244.2H870.634V231.4H883.434V218.6H896.234V141.8H883.434V129H870.634V103.4H883.434V39.4H870.634V26.6H857.834V13.8H845.034V1H717.034V257H857.834V244.2ZM741.634 232.4V128H856.834V104.4H846.034V117.2H741.634V25.6H831.234V14.8H730.834V243.2H844.034V232.4H741.634ZM845.034 231.4V244.2H729.834V13.8H832.234V26.6H742.634V116.2H845.034V103.4H857.834V129H742.634V231.4H845.034ZM883.434 205.8H870.634V154.6H883.434V205.8ZM882.434 155.6H871.634V204.8H882.434V155.6ZM870.634 90.6H857.834V52.2H870.634V90.6ZM869.634 53.2H858.834V89.6H869.634V53.2Z" fill="white"/>
<path fill-rule="evenodd" clip-rule="evenodd" d="M610.531 89.6H623.331V53.2H610.531V40.4H535.731V102.4H610.531V89.6ZM611.531 103.4H534.731V39.4H611.531V52.2H624.331V90.6H611.531V103.4ZM623.331 204.8H636.131V155.6H623.331V142.8H535.731V217.6H623.331V204.8ZM624.331 218.6H534.731V141.8H624.331V154.6H637.131V205.8H624.331V218.6ZM638.131 258H495.331V0H625.331V12.8H638.131V25.6H650.931V38.4H663.731V104.4H650.931V128H663.731V140.8H676.531V219.6H663.731V232.4H650.931V245.2H638.131V258ZM637.131 244.2H649.931V231.4H662.731V218.6H675.531V141.8H662.731V129H649.931V103.4H662.731V39.4H649.931V26.6H637.131V13.8H624.331V1H496.331V257H637.131V244.2ZM520.931 232.4V128H636.131V104.4H625.331V117.2H520.931V25.6H610.531V14.8H510.131V243.2H623.331V232.4H520.931ZM624.331 231.4V244.2H509.131V13.8H611.531V26.6H521.931V116.2H624.331V103.4H637.131V129H521.931V231.4H624.331ZM662.731 205.8H649.931V154.6H662.731V205.8ZM661.731 155.6H650.931V204.8H661.731V155.6ZM649.931 90.6H637.131V52.2H649.931V90.6ZM648.931 53.2H638.131V89.6H648.931V53.2Z" fill="white"/>
<path fill-rule="evenodd" clip-rule="evenodd" d="M357.103 204.8H382.703V192H395.503V179.2H408.303V153.6H421.103V104.4H408.303V78.8H395.503V66H382.703V53.2H357.103V40.4H320.703V53.2H295.103V66H282.303V78.8H269.503V104.4H256.703V153.6H269.503V179.2H282.303V192H295.103V204.8H320.703V217.6H357.103V204.8ZM358.103 218.6H319.703V205.8H294.103V193H281.303V180.2H268.503V154.6H255.703V103.4H268.503V77.8H281.303V65H294.103V52.2H319.703V39.4H358.103V52.2H383.703V65H396.503V77.8H409.303V103.4H422.103V154.6H409.303V180.2H396.503V193H383.703V205.8H358.103V218.6ZM371.903 258H305.903V245.2H267.503V232.4H254.703V219.6H241.903V206.8H229.103V181.2H216.303V76.8H229.103V51.2H241.903V38.4H254.703V25.6H267.503V12.8H305.903V0H371.903V12.8H410.303V25.6H423.103V38.4H435.903V51.2H448.703V76.8H461.503V181.2H448.703V206.8H435.903V219.6H423.103V232.4H410.303V245.2H371.903V258ZM409.303 231.4H422.103V218.6H434.903V205.8H447.703V180.2H460.503V77.8H447.703V52.2H434.903V39.4H422.103V26.6H409.303V13.8H370.903V1H306.903V13.8H268.503V26.6H255.703V39.4H242.903V52.2H230.103V77.8H217.303V180.2H230.103V205.8H242.903V218.6H255.703V231.4H268.503V244.2H306.903V257H370.903V244.2H409.303V231.4ZM447.703 167.4H434.903V90.6H447.703V167.4ZM446.703 91.6H435.903V166.4H446.703V91.6ZM434.903 90.6V65H422.103V52.2H409.303V39.4H396.503V26.6H370.903V39.4H396.503V52.2H409.303V65H422.103V90.6H434.903ZM433.903 89.6V66H423.103V89.6H433.903ZM410.303 64H421.103V53.2H410.303V64ZM397.503 51.2H408.303V40.4H397.503V51.2ZM371.903 27.6V38.4H395.503V27.6H371.903ZM434.903 167.4H422.103V193H409.303V205.8H396.503V218.6H370.903V231.4H396.503V218.6H409.303V205.8H422.103V193H434.903V167.4ZM433.903 168.4H423.103V192H433.903V168.4ZM421.103 194H410.303V204.8H421.103V194ZM408.303 206.8H397.503V217.6H408.303V206.8ZM395.503 219.6H371.903V230.4H395.503V219.6ZM306.903 231.4H281.303V218.6H306.903V231.4ZM281.303 218.6V205.8H268.503V193H255.703V167.4H242.903V90.6H255.703V65H268.503V52.2H281.303V39.4H306.903V26.6H281.303V39.4H268.503V52.2H255.703V65H242.903V90.6H230.103V167.4H242.903V193H255.703V205.8H268.503V218.6H281.303ZM280.303 217.6V206.8H269.503V217.6H280.303ZM256.703 204.8H267.503V194H256.703V204.8ZM243.903 192H254.703V168.4H243.903V192ZM231.103 166.4H241.903V91.6H231.103V166.4ZM243.903 89.6H254.703V66H243.903V89.6ZM256.703 64H267.503V53.2H256.703V64ZM269.503 51.2H280.303V40.4H269.503V51.2ZM282.303 38.4H305.903V27.6H282.303V38.4ZM282.303 219.6V230.4H305.903V219.6H282.303ZM358.103 244.2H319.703V231.4H358.103V244.2ZM357.103 232.4H320.703V243.2H357.103V232.4ZM358.103 13.8V26.6H319.703V13.8H358.103ZM320.703 14.8V25.6H357.103V14.8H320.703Z" fill="white"/>
<path fill-rule="evenodd" clip-rule="evenodd" d="M116 89.6H128.8V53.2H116V40.4H41.1998V102.4H116V89.6ZM117 103.4H40.1998V39.4H117V52.2H129.8V90.6H117V103.4ZM128.8 204.8H141.6V155.6H128.8V142.8H41.1998V217.6H128.8V204.8ZM129.8 218.6H40.1998V141.8H129.8V154.6H142.6V205.8H129.8V218.6ZM143.6 258H0.799805V0H130.8V12.8H143.6V25.6H156.4V38.4H169.2V104.4H156.4V128H169.2V140.8H182V219.6H169.2V232.4H156.4V245.2H143.6V258ZM142.6 244.2H155.4V231.4H168.2V218.6H181V141.8H168.2V129H155.4V103.4H168.2V39.4H155.4V26.6H142.6V13.8H129.8V1H1.7998V257H142.6V244.2ZM26.3998 232.4V128H141.6V104.4H130.8V117.2H26.3998V25.6H116V14.8H15.5998V243.2H128.8V232.4H26.3998ZM129.8 231.4V244.2H14.5998V13.8H117V26.6H27.3998V116.2H129.8V103.4H142.6V129H27.3998V231.4H129.8ZM168.2 205.8H155.4V154.6H168.2V205.8ZM167.2 155.6H156.4V204.8H167.2V155.6ZM155.4 90.6H142.6V52.2H155.4V90.6ZM154.4 53.2H143.6V89.6H154.4V53.2Z" fill="white"/>
</svg>
