<svg  viewBox="0 0 5828 439" fill="none" xmlns="http://www.w3.org/2000/svg">
<path fill-rule="evenodd" clip-rule="evenodd" d="M5827.73 438.5H5760.51V0H5827.73V438.5ZM5805.04 415.807H5783.2V22.6928H5805.04V415.807ZM5804.19 23.5459H5784.06V414.954H5804.19V23.5459ZM5826.88 437.647V0.853113H5761.36V437.647H5826.88Z" fill="white"/>
<path fill-rule="evenodd" clip-rule="evenodd" d="M5683.11 438.5H5615.88V0H5683.11V438.5ZM5660.41 415.807H5638.57V22.6928H5660.41V415.807ZM5659.56 23.5459H5639.43V414.954H5659.56V23.5459ZM5682.25 437.647V0.853113H5616.73V437.647H5682.25Z" fill="white"/>
<path fill-rule="evenodd" clip-rule="evenodd" d="M5538.48 438.5H5471.25V0H5538.48V438.5ZM5515.78 415.807H5493.94V22.6928H5515.78V415.807ZM5514.93 23.5459H5494.8V414.954H5514.93V23.5459ZM5537.62 437.647V0.853113H5472.11V437.647H5537.62Z" fill="white"/>
<path fill-rule="evenodd" clip-rule="evenodd" d="M4933.97 438.5H4866.74V0H4933.97V174.718H5128.82V0H5196.04V438.5H5128.82V241.943H4933.97V438.5ZM5129.67 241.09V437.647H5195.19V0.853113H5129.67V175.571H4933.11V0.853113H4867.6V437.647H4933.11V241.09H5129.67ZM4910.42 218.397H5152.36V414.954H5172.5V23.5459H5152.36V198.263H4910.42V23.5459H4890.29V414.954H4910.42V218.397ZM4911.27 415.807H4889.44V22.6928H4911.27V197.41H5151.51V22.6928H5173.35V415.807H5151.51V219.25H4911.27V415.807Z" fill="white"/>
<path fill-rule="evenodd" clip-rule="evenodd" d="M4672.71 438.5H4605.48V67.2253H4452.6V0H4825.58V67.2253H4672.71V438.5ZM4606.33 66.3722V437.647H4671.85V66.3722H4824.73V0.853113H4453.46V66.3722H4606.33ZM4649.16 43.6794H4802.04V23.5459H4476.15V43.6794H4629.03V414.954H4649.16V43.6794ZM4650.01 415.807H4628.17V44.5325H4475.3V22.6928H4802.89V44.5325H4650.01V415.807Z" fill="white"/>
<path fill-rule="evenodd" clip-rule="evenodd" d="M4414.1 438.5H4346.88V0H4414.1V438.5ZM4391.41 415.807H4369.57V22.6928H4391.41V415.807ZM4390.56 23.5459H4370.42V414.954H4390.56V23.5459ZM4413.25 437.647V0.853113H4347.73V437.647H4413.25Z" fill="white"/>
<path fill-rule="evenodd" clip-rule="evenodd" d="M3920.23 438.5H3853V0H3963.91V65.5191H3985.75V109.198H4007.59V174.718H4029.43V240.237H4051.27V327.595H4071.4V240.237H4093.24V174.718H4115.08V109.198H4136.92V65.5191H4158.76V0H4269.66V438.5H4202.44V110.905H4182.31V154.584H4160.47V241.943H4138.63V329.302H4116.79V394.821H4094.95V438.5H4027.72V394.821H4005.88V329.302H3984.04V241.943H3962.2V154.584H3940.36V110.905H3920.23V438.5ZM3941.22 110.052V153.731H3963.06V241.09H3984.9V328.448H4006.73V393.967H4028.57V437.647H4094.09V393.967H4115.93V328.448H4137.77V241.09H4159.61V153.731H4181.45V110.052H4203.29V437.647H4268.81V0.853113H4159.61V66.3722H4137.77V110.052H4115.93V175.571H4094.09V241.09H4072.25V328.448H4050.41V241.09H4028.57V175.571H4006.73V110.052H3984.9V66.3722H3963.06V0.853113H3853.86V437.647H3919.38V110.052H3941.22ZM3896.68 87.3588H3940.36V23.5459H3876.55V414.954H3896.68V87.3588ZM3897.54 415.807H3875.7V22.6928H3941.22V88.2119H3897.54V415.807ZM4225.98 87.3588V414.954H4246.12V23.5459H4182.31V87.3588H4225.98ZM4181.45 22.6928H4246.97V415.807H4225.13V88.2119H4181.45V22.6928ZM4051.27 371.275V414.954H4071.4V371.275H4093.24V351.141H4029.43V371.275H4051.27ZM4028.57 350.288H4094.09V372.128H4072.25V415.807H4050.41V372.128H4028.57V350.288ZM4115.93 306.609H4094.09V262.929H4115.93V306.609ZM4115.08 263.782H4094.95V305.756H4115.08V263.782ZM4028.57 306.609H4006.73V262.929H4028.57V306.609ZM4027.72 263.782H4007.59V305.756H4027.72V263.782ZM4006.73 219.25H3984.9V197.41H4006.73V219.25ZM4005.88 198.263H3985.75V218.397H4005.88V198.263ZM4137.77 219.25H4115.93V197.41H4137.77V219.25ZM4136.92 198.263H4116.79V218.397H4136.92V198.263Z" fill="white"/>
<path fill-rule="evenodd" clip-rule="evenodd" d="M3696.61 438.5H3585.71V416.66H3542.03V394.821H3520.19V372.981H3498.35V327.595H3565.57V349.435H3587.41V371.275H3694.91V349.435H3716.75V285.622H3694.91V263.782H3673.07V241.943H3607.55V220.103H3542.03V198.263H3520.19V176.424H3498.35V65.5191H3520.19V43.6794H3542.03V21.8397H3563.87V0H3718.45V21.8397H3740.29V43.6794H3762.13V89.065H3694.91V67.2253H3587.41V89.065H3565.57V152.878H3609.25V174.718H3674.77V196.557H3718.45V218.397H3762.13V262.076H3783.97V372.981H3762.13V394.821H3740.29V416.66H3696.61V438.5ZM3739.44 393.967H3761.28V372.128H3783.12V262.929H3761.28V219.25H3717.6V197.41H3673.92V175.571H3608.4V153.731H3564.72V88.2119H3586.56V66.3722H3695.76V88.2119H3761.28V44.5325H3739.44V22.6928H3717.6V0.853113H3564.72V22.6928H3542.88V44.5325H3521.04V66.3722H3499.2V175.571H3521.04V197.41H3542.88V219.25H3608.4V241.09H3673.92V262.929H3695.76V284.769H3717.6V350.288H3695.76V372.128H3586.56V350.288H3564.72V328.448H3499.2V372.128H3521.04V393.967H3542.88V415.807H3586.56V437.647H3695.76V415.807H3739.44V393.967ZM3586.56 22.6928V44.5325H3695.76V22.6928H3586.56ZM3694.91 23.5459H3587.41V43.6794H3694.91V23.5459ZM3521.04 88.2119H3542.88V153.731H3521.04V88.2119ZM3521.89 152.878H3542.03V89.065H3521.89V152.878ZM3761.28 350.288H3739.44V284.769H3761.28V350.288ZM3760.42 285.622H3740.29V349.435H3760.42V285.622ZM3673.92 415.807H3608.4V393.967H3673.92V415.807ZM3673.07 394.821H3609.25V414.954H3673.07V394.821ZM3652.08 197.41V219.25H3630.24V197.41H3652.08ZM3631.09 198.263V218.397H3651.23V198.263H3631.09ZM3586.56 175.571V197.41H3564.72V175.571H3586.56ZM3565.57 176.424V196.557H3585.71V176.424H3565.57ZM3739.44 241.09V262.929H3717.6V241.09H3739.44ZM3718.45 241.943V262.076H3738.59V241.943H3718.45Z" fill="white"/>
<path fill-rule="evenodd" clip-rule="evenodd" d="M3226.35 438.5H2962.57V0H3226.35V67.2253H3029.79V174.718H3226.35V241.943H3029.79V371.275H3226.35V438.5ZM3028.94 372.128V241.09H3225.5V175.571H3028.94V66.3722H3225.5V0.853113H2963.42V437.647H3225.5V372.128H3028.94ZM3006.25 394.821V218.397H3202.8V198.263H3006.25V43.6794H3202.8V23.5459H2986.11V414.954H3202.8V394.821H3006.25ZM3203.66 393.967V415.807H2985.26V22.6928H3203.66V44.5325H3007.1V197.41H3203.66V219.25H3007.1V393.967H3203.66Z" fill="white"/>
<path fill-rule="evenodd" clip-rule="evenodd" d="M2726.72 349.435H2770.4V327.595H2792.24V305.756H2814.08V262.076H2835.92V176.424H2814.08V132.744H2792.24V110.905H2770.4V89.065H2726.72V67.2253H2662.91V89.065H2619.23V110.905H2597.39V132.744H2575.55V176.424H2553.71V262.076H2575.55V305.756H2597.39V327.595H2619.23V349.435H2662.91V371.275H2726.72V349.435ZM2727.57 372.128H2662.05V350.288H2618.37V328.448H2596.53V306.609H2574.69V262.929H2552.85V175.571H2574.69V131.891H2596.53V110.052H2618.37V88.2119H2662.05V66.3722H2727.57V88.2119H2771.25V110.052H2793.09V131.891H2814.93V175.571H2836.77V262.929H2814.93V306.609H2793.09V328.448H2771.25V350.288H2727.57V372.128ZM2750.27 438.5H2639.36V416.66H2573.84V394.821H2552V372.981H2530.16V351.141H2508.32V307.462H2486.48V131.038H2508.32V87.3588H2530.16V65.5191H2552V43.6794H2573.84V21.8397H2639.36V0H2750.27V21.8397H2815.78V43.6794H2837.62V65.5191H2859.46V87.3588H2881.3V131.038H2903.14V307.462H2881.3V351.141H2859.46V372.981H2837.62V394.821H2815.78V416.66H2750.27V438.5ZM2814.93 393.967H2836.77V372.128H2858.61V350.288H2880.45V306.609H2902.29V131.891H2880.45V88.2119H2858.61V66.3722H2836.77V44.5325H2814.93V22.6928H2749.41V0.853113H2640.21V22.6928H2574.69V44.5325H2552.85V66.3722H2531.01V88.2119H2509.18V131.891H2487.34V306.609H2509.18V350.288H2531.01V372.128H2552.85V393.967H2574.69V415.807H2640.21V437.647H2749.41V415.807H2814.93V393.967ZM2880.45 284.769H2858.61V153.731H2880.45V284.769ZM2879.6 154.584H2859.46V283.916H2879.6V154.584ZM2858.61 153.731V110.052H2836.77V88.2119H2814.93V66.3722H2793.09V44.5325H2749.41V66.3722H2793.09V88.2119H2814.93V110.052H2836.77V153.731H2858.61ZM2857.76 152.878V110.905H2837.62V152.878H2857.76ZM2815.78 109.198H2835.92V89.065H2815.78V109.198ZM2793.94 87.3588H2814.08V67.2253H2793.94V87.3588ZM2750.27 45.3856V65.5191H2792.24V45.3856H2750.27ZM2858.61 284.769H2836.77V328.448H2814.93V350.288H2793.09V372.128H2749.41V393.967H2793.09V372.128H2814.93V350.288H2836.77V328.448H2858.61V284.769ZM2857.76 285.622H2837.62V327.595H2857.76V285.622ZM2835.92 329.302H2815.78V349.435H2835.92V329.302ZM2814.08 351.141H2793.94V371.275H2814.08V351.141ZM2792.24 372.981H2750.27V393.114H2792.24V372.981ZM2640.21 393.967H2596.53V372.128H2640.21V393.967ZM2596.53 372.128V350.288H2574.69V328.448H2552.85V284.769H2531.01V153.731H2552.85V110.052H2574.69V88.2119H2596.53V66.3722H2640.21V44.5325H2596.53V66.3722H2574.69V88.2119H2552.85V110.052H2531.01V153.731H2509.18V284.769H2531.01V328.448H2552.85V350.288H2574.69V372.128H2596.53ZM2595.68 371.275V351.141H2575.55V371.275H2595.68ZM2553.71 349.435H2573.84V329.302H2553.71V349.435ZM2531.87 327.595H2552V285.622H2531.87V327.595ZM2510.03 283.916H2530.16V154.584H2510.03V283.916ZM2531.87 152.878H2552V110.905H2531.87V152.878ZM2553.71 109.198H2573.84V89.065H2553.71V109.198ZM2575.55 87.3588H2595.68V67.2253H2575.55V87.3588ZM2597.39 65.5191H2639.36V45.3856H2597.39V65.5191ZM2597.39 372.981V393.114H2639.36V372.981H2597.39ZM2727.57 415.807H2662.05V393.967H2727.57V415.807ZM2726.72 394.821H2662.91V414.954H2726.72V394.821ZM2727.57 22.6928V44.5325H2662.05V22.6928H2727.57ZM2662.91 23.5459V43.6794H2726.72V23.5459H2662.91Z" fill="white"/>
<path fill-rule="evenodd" clip-rule="evenodd" d="M2352.52 438.5H2241.62V416.66H2197.94V372.981H2176.1V283.916H2243.32V349.435H2265.16V371.275H2328.98V349.435H2350.82V0H2418.04V372.981H2396.2V416.66H2352.52V438.5ZM2395.35 372.128H2417.19V0.853113H2351.67V350.288H2329.83V372.128H2264.31V350.288H2242.47V284.769H2176.95V372.128H2198.79V415.807H2242.47V437.647H2351.67V415.807H2395.35V372.128ZM2395.35 350.288H2373.51V22.6928H2395.35V350.288ZM2394.5 23.5459H2374.36V349.435H2394.5V23.5459ZM2329.83 415.807H2264.31V393.967H2329.83V415.807ZM2328.98 394.821H2265.16V414.954H2328.98V394.821ZM2220.63 306.609V350.288H2198.79V306.609H2220.63ZM2199.64 307.462V349.435H2219.78V307.462H2199.64ZM2373.51 393.967H2351.67V372.128H2373.51V393.967ZM2372.66 372.981H2352.52V393.114H2372.66V372.981ZM2242.47 372.128V393.967H2220.63V372.128H2242.47ZM2221.48 372.981V393.114H2241.62V372.981H2221.48Z" fill="white"/>
<path fill-rule="evenodd" clip-rule="evenodd" d="M1797.23 438.5H1730.01V285.622H1708.17V241.943H1686.33V198.263H1664.49V154.584H1642.65V110.905H1620.81V67.2253H1598.97V23.5459H1577.13V0H1666.19V43.6794H1688.03V87.3588H1709.87V131.038H1731.71V174.718H1753.55V218.397H1773.69V174.718H1795.52V131.038H1817.36V87.3588H1839.2V43.6794H1861.04V0H1950.11V23.5459H1928.27V67.2253H1906.43V110.905H1884.59V154.584H1862.75V198.263H1840.91V241.943H1819.07V285.622H1797.23V438.5ZM1818.22 241.09H1840.06V197.41H1861.9V153.731H1883.74V110.052H1905.58V66.3722H1927.42V22.6928H1949.26V0.853113H1861.9V44.5325H1840.06V88.2119H1818.22V131.891H1796.38V175.571H1774.54V219.25H1752.7V175.571H1730.86V131.891H1709.02V88.2119H1687.18V44.5325H1665.34V0.853113H1577.98V22.6928H1599.82V66.3722H1621.66V110.052H1643.5V153.731H1665.34V197.41H1687.18V241.09H1709.02V284.769H1730.86V437.647H1796.38V284.769H1818.22V241.09ZM1773.69 262.076H1795.52V241.943H1731.71V262.076H1753.55V414.954H1773.69V262.076ZM1774.54 415.807H1752.7V262.929H1730.86V241.09H1796.38V262.929H1774.54V415.807ZM1665.34 66.3722V88.2119H1643.5V66.3722H1665.34ZM1644.35 67.2253V87.3588H1664.49V67.2253H1644.35ZM1687.18 110.052V131.891H1665.34V110.052H1687.18ZM1666.19 110.905V131.038H1686.33V110.905H1666.19ZM1709.02 153.731V175.571H1687.18V153.731H1709.02ZM1688.03 154.584V174.718H1708.17V154.584H1688.03ZM1730.86 197.41V219.25H1709.02V197.41H1730.86ZM1709.87 198.263V218.397H1730.01V198.263H1709.87ZM1840.06 175.571H1818.22V153.731H1840.06V175.571ZM1839.2 154.584H1819.07V174.718H1839.2V154.584ZM1905.58 44.5325H1883.74V22.6928H1905.58V44.5325ZM1904.72 23.5459H1884.59V43.6794H1904.72V23.5459ZM1883.74 88.2119H1861.9V66.3722H1883.74V88.2119ZM1882.88 67.2253H1862.75V87.3588H1882.88V67.2253ZM1861.9 131.891H1840.06V110.052H1861.9V131.891ZM1861.04 110.905H1840.91V131.038H1861.04V110.905ZM1643.5 22.6928V44.5325H1621.66V22.6928H1643.5ZM1622.51 23.5459V43.6794H1642.65V23.5459H1622.51ZM1818.22 219.25H1796.38V197.41H1818.22V219.25ZM1817.36 198.263H1797.23V218.397H1817.36V198.263Z" fill="white"/>
<path fill-rule="evenodd" clip-rule="evenodd" d="M1416.91 152.878H1438.75V89.065H1416.91V67.2253H1287.58V174.718H1416.91V152.878ZM1417.76 175.571H1286.72V66.3722H1417.76V88.2119H1439.6V153.731H1417.76V175.571ZM1438.75 349.435H1460.59V263.782H1438.75V241.943H1287.58V371.275H1438.75V349.435ZM1439.6 372.128H1286.72V241.09H1439.6V262.929H1461.44V350.288H1439.6V372.128ZM1462.29 438.5H1220.35V0H1440.45V21.8397H1462.29V43.6794H1484.13V65.5191H1505.97V176.424H1484.13V218.397H1505.97V240.237H1527.81V372.981H1505.97V394.821H1484.13V416.66H1462.29V438.5ZM1461.44 415.807H1483.28V393.967H1505.12V372.128H1526.96V241.09H1505.12V219.25H1483.28V175.571H1505.12V66.3722H1483.28V44.5325H1461.44V22.6928H1439.6V0.853113H1221.2V437.647H1461.44V415.807ZM1264.03 394.821V218.397H1460.59V176.424H1440.45V198.263H1264.03V43.6794H1416.91V23.5459H1243.9V414.954H1438.75V394.821H1264.03ZM1439.6 393.967V415.807H1243.04V22.6928H1417.76V44.5325H1264.88V197.41H1439.6V175.571H1461.44V219.25H1264.88V393.967H1439.6ZM1505.12 350.288H1483.28V262.929H1505.12V350.288ZM1504.27 263.782H1484.13V349.435H1504.27V263.782ZM1483.28 153.731H1461.44V88.2119H1483.28V153.731ZM1482.43 89.065H1462.29V152.878H1482.43V89.065Z" fill="white"/>
<path fill-rule="evenodd" clip-rule="evenodd" d="M1040.34 152.878H1062.18V89.065H1040.34V67.2253H911.007V174.718H1040.34V152.878ZM1041.19 175.571H910.154V66.3722H1041.19V88.2119H1063.03V153.731H1041.19V175.571ZM1062.18 349.435H1084.02V263.782H1062.18V241.943H911.007V371.275H1062.18V349.435ZM1063.03 372.128H910.154V241.09H1063.03V262.929H1084.87V350.288H1063.03V372.128ZM1085.72 438.5H843.782V0H1063.88V21.8397H1085.72V43.6794H1107.56V65.5191H1129.4V176.424H1107.56V218.397H1129.4V240.237H1151.24V372.981H1129.4V394.821H1107.56V416.66H1085.72V438.5ZM1084.87 415.807H1106.71V393.967H1128.55V372.128H1150.39V241.09H1128.55V219.25H1106.71V175.571H1128.55V66.3722H1106.71V44.5325H1084.87V22.6928H1063.03V0.853113H844.635V437.647H1084.87V415.807ZM887.461 394.821V218.397H1084.02V176.424H1063.88V198.263H887.461V43.6794H1040.34V23.5459H867.328V414.954H1062.18V394.821H887.461ZM1063.03 393.967V415.807H866.475V22.6928H1041.19V44.5325H888.314V197.41H1063.03V175.571H1084.87V219.25H888.314V393.967H1063.03ZM1128.55 350.288H1106.71V262.929H1128.55V350.288ZM1127.7 263.782H1107.56V349.435H1127.7V263.782ZM1106.71 153.731H1084.87V88.2119H1106.71V153.731ZM1105.86 89.065H1085.72V152.878H1105.86V89.065Z" fill="white"/>
<path fill-rule="evenodd" clip-rule="evenodd" d="M607.933 349.435H651.613V327.595H673.452V305.756H695.292V262.076H717.132V176.424H695.292V132.744H673.452V110.905H651.613V89.065H607.933V67.2253H544.12V89.065H500.441V110.905H478.601V132.744H456.762V176.424H434.922V262.076H456.762V305.756H478.601V327.595H500.441V349.435H544.12V371.275H607.933V349.435ZM608.786 372.128H543.267V350.288H499.588V328.448H477.748V306.609H455.909V262.929H434.069V175.571H455.909V131.891H477.748V110.052H499.588V88.2119H543.267V66.3722H608.786V88.2119H652.466V110.052H674.306V131.891H696.145V175.571H717.985V262.929H696.145V306.609H674.306V328.448H652.466V350.288H608.786V372.128ZM631.479 438.5H520.575V416.66H455.055V394.821H433.216V372.981H411.376V351.141H389.536V307.462H367.697V131.038H389.536V87.3588H411.376V65.5191H433.216V43.6794H455.055V21.8397H520.575V0H631.479V21.8397H696.998V43.6794H718.838V65.5191H740.678V87.3588H762.517V131.038H784.357V307.462H762.517V351.141H740.678V372.981H718.838V394.821H696.998V416.66H631.479V438.5ZM696.145 393.967H717.985V372.128H739.825V350.288H761.664V306.609H783.504V131.891H761.664V88.2119H739.825V66.3722H717.985V44.5325H696.145V22.6928H630.626V0.853113H521.428V22.6928H455.909V44.5325H434.069V66.3722H412.229V88.2119H390.39V131.891H368.55V306.609H390.39V350.288H412.229V372.128H434.069V393.967H455.909V415.807H521.428V437.647H630.626V415.807H696.145V393.967ZM761.664 284.769H739.825V153.731H761.664V284.769ZM760.811 154.584H740.678V283.916H760.811V154.584ZM739.825 153.731V110.052H717.985V88.2119H696.145V66.3722H674.306V44.5325H630.626V66.3722H674.306V88.2119H696.145V110.052H717.985V153.731H739.825ZM738.971 152.878V110.905H718.838V152.878H738.971ZM696.998 109.198H717.132V89.065H696.998V109.198ZM675.159 87.3588H695.292V67.2253H675.159V87.3588ZM631.479 45.3856V65.5191H673.452V45.3856H631.479ZM739.825 284.769H717.985V328.448H696.145V350.288H674.306V372.128H630.626V393.967H674.306V372.128H696.145V350.288H717.985V328.448H739.825V284.769ZM738.971 285.622H718.838V327.595H738.971V285.622ZM717.132 329.302H696.998V349.435H717.132V329.302ZM695.292 351.141H675.159V371.275H695.292V351.141ZM673.452 372.981H631.479V393.114H673.452V372.981ZM521.428 393.967H477.748V372.128H521.428V393.967ZM477.748 372.128V350.288H455.909V328.448H434.069V284.769H412.229V153.731H434.069V110.052H455.909V88.2119H477.748V66.3722H521.428V44.5325H477.748V66.3722H455.909V88.2119H434.069V110.052H412.229V153.731H390.39V284.769H412.229V328.448H434.069V350.288H455.909V372.128H477.748ZM476.895 371.275V351.141H456.762V371.275H476.895ZM434.922 349.435H455.055V329.302H434.922V349.435ZM413.082 327.595H433.216V285.622H413.082V327.595ZM391.243 283.916H411.376V154.584H391.243V283.916ZM413.082 152.878H433.216V110.905H413.082V152.878ZM434.922 109.198H455.055V89.065H434.922V109.198ZM456.762 87.3588H476.895V67.2253H456.762V87.3588ZM478.601 65.5191H520.575V45.3856H478.601V65.5191ZM478.601 372.981V393.114H520.575V372.981H478.601ZM608.786 415.807H543.267V393.967H608.786V415.807ZM607.933 394.821H544.12V414.954H607.933V394.821ZM608.786 22.6928V44.5325H543.267V22.6928H608.786ZM544.12 23.5459V43.6794H607.933V23.5459H544.12Z" fill="white"/>
<path fill-rule="evenodd" clip-rule="evenodd" d="M196.557 152.878H218.397V89.065H196.557V67.2253H67.2253V174.718H196.557V152.878ZM197.41 175.571H66.3722V66.3722H197.41V88.2119H219.25V153.731H197.41V175.571ZM218.397 349.435H240.237V263.782H218.397V241.943H67.2253V371.275H218.397V349.435ZM219.25 372.128H66.3722V241.09H219.25V262.929H241.09V350.288H219.25V372.128ZM241.943 438.5H0V0H220.103V21.8397H241.943V43.6794H263.782V65.5191H285.622V176.424H263.782V218.397H285.622V240.237H307.462V372.981H285.622V394.821H263.782V416.66H241.943V438.5ZM241.09 415.807H262.929V393.967H284.769V372.128H306.609V241.09H284.769V219.25H262.929V175.571H284.769V66.3722H262.929V44.5325H241.09V22.6928H219.25V0.853113H0.853113V437.647H241.09V415.807ZM43.6794 394.821V218.397H240.237V176.424H220.103V198.263H43.6794V43.6794H196.557V23.5459H23.5459V414.954H218.397V394.821H43.6794ZM219.25 393.967V415.807H22.6928V22.6928H197.41V44.5325H44.5325V197.41H219.25V175.571H241.09V219.25H44.5325V393.967H219.25ZM284.769 350.288H262.929V262.929H284.769V350.288ZM283.916 263.782H263.782V349.435H283.916V263.782ZM262.929 153.731H241.09V88.2119H262.929V153.731ZM262.076 89.065H241.943V152.878H262.076V89.065Z" fill="white"/>
</svg>
